<?xml version="1.0" encoding="UTF-8"?>
<!DOCTYPE svg PUBLIC "-//W3C//DTD SVG 1.1//EN" "http://www.w3.org/Graphics/SVG/1.1/DTD/svg11.dtd">
<svg xmlns="http://www.w3.org/2000/svg" version="1.1" width="1251px" height="1207px" style="shape-rendering:geometricPrecision; text-rendering:geometricPrecision; image-rendering:optimizeQuality; fill-rule:evenodd; clip-rule:evenodd" xmlns:xlink="http://www.w3.org/1999/xlink">
<g><path style="opacity:0.998" fill="#105a90" d="M 601.5,77.5 C 676.682,75.5064 735.515,105.173 778,166.5C 794.021,191.893 803.687,219.56 807,249.5C 808.432,303.484 808.932,357.484 808.5,411.5C 861.501,411.333 914.501,411.5 967.5,412C 1041.48,421.664 1094.31,460.164 1126,527.5C 1152.84,596.92 1144.84,661.92 1102,722.5C 1067.31,765.939 1022.14,790.772 966.5,797C 913.834,797.5 861.168,797.667 808.5,797.5C 808.932,851.516 808.432,905.516 807,959.5C 798.349,1024.69 765.849,1073.85 709.5,1107C 644.778,1140.23 580.445,1139.57 516.5,1105C 464.282,1072.45 433.115,1025.62 423,964.5C 421.543,908.855 421.043,853.188 421.5,797.5C 368.499,797.667 315.499,797.5 262.5,797C 187.859,787.289 134.692,748.456 103,680.5C 76.2746,610.294 84.9413,544.96 129,484.5C 163.148,442.501 207.314,418.334 261.5,412C 314.832,411.5 368.166,411.333 421.5,411.5C 421.333,358.832 421.5,306.166 422,253.5C 431,180.609 468.166,127.776 533.5,95C 555.326,85.3777 577.993,79.5444 601.5,77.5 Z"/></g>
</svg>
