<svg width="230" height="768" viewBox="0 0 230 768" fill="none" xmlns="http://www.w3.org/2000/svg">
<rect width="230" height="768" fill="#00588E"/>
<path fill-rule="evenodd" clip-rule="evenodd" d="M163.972 768C174.293 743.561 180 716.697 180 688.5C180 583.849 101.391 497.558 0 485.452V486.459C100.838 498.559 179 584.402 179 688.5C179 716.708 173.261 743.576 162.886 768H163.972Z" fill="white" fill-opacity="0.3"/>
<path d="M82 724.711H57.143V749H38.7178V724.711H14V707.289H38.7178V683H57.143V707.289H82V724.711Z" fill="#3CB4E5" fill-opacity="0.2"/>
<path d="M200 531.384H186.109V545H175.813V531.384H162V521.616H175.813V508H186.109V521.616H200V531.384Z" fill="#3CB4E5" fill-opacity="0.2"/>
<path d="M48 102.495H28.2606V122H13.6288V102.495L0 102.495V88.5046L13.6288 88.5046V69H28.2606V88.5046H48V102.495Z" fill="#3CB4E5" fill-opacity="0.2"/>
</svg>
