<svg width="23" height="22" viewBox="0 0 23 22" fill="none" xmlns="http://www.w3.org/2000/svg">
<path d="M11.5 2.75C13.0125 2.75 14.25 3.9875 14.25 5.5C14.25 7.0125 13.0125 8.25 11.5 8.25C9.9875 8.25 8.75 7.0125 8.75 5.5C8.75 3.9875 9.9875 2.75 11.5 2.75ZM11.5 15.125C15.2125 15.125 19.475 16.8988 19.75 17.875V19.25H3.25V17.8888C3.525 16.8988 7.7875 15.125 11.5 15.125ZM11.5 0C8.46125 0 6 2.46125 6 5.5C6 8.53875 8.46125 11 11.5 11C14.5387 11 17 8.53875 17 5.5C17 2.46125 14.5387 0 11.5 0ZM11.5 12.375C7.82875 12.375 0.5 14.2175 0.5 17.875V22H22.5V17.875C22.5 14.2175 15.1713 12.375 11.5 12.375Z" fill="#00588E"/>
</svg>
